<svg width="153" height="69" viewBox="0 0 153 69" fill="none" xmlns="http://www.w3.org/2000/svg">
<path d="M14.0351 67V23.384C11.4971 25.358 6.04512 26.11 0.311117 26.11V13.608C9.42912 13.608 16.8551 10.036 16.8551 2.046H30.0151V67H14.0351ZM88.4413 67H38.4333C38.4333 53.276 45.7653 47.448 59.8653 36.92C66.9153 31.656 72.0853 27.332 72.0853 21.41C72.0853 16.428 69.6413 13.42 64.5653 13.42C58.4553 13.42 54.7893 16.804 54.7893 25.734H39.3733C39.3733 10.506 47.4573 0.541998 65.0353 0.541998C79.0413 0.541998 88.4413 7.874 88.4413 20.282C88.4413 32.972 77.9133 40.868 68.9833 47.354C65.8813 49.61 63.0613 51.772 60.8993 53.934V54.122H88.4413V67ZM124.404 68.504C104.946 68.504 95.8283 53.934 95.8283 34.57C95.8283 15.206 104.946 0.541998 124.404 0.541998C143.862 0.541998 152.886 15.206 152.886 34.57C152.886 53.934 143.862 68.504 124.404 68.504ZM124.404 55.344C133.71 55.344 136.248 46.32 136.248 34.57C136.248 22.82 133.71 13.702 124.404 13.702C115.098 13.702 112.466 22.82 112.466 34.57C112.466 46.32 115.098 55.344 124.404 55.344Z" fill="#14AE5C"/>
</svg>
