<svg width="53" height="69" viewBox="0 0 53 69" fill="none" xmlns="http://www.w3.org/2000/svg">
<path d="M27.5062 68.504C10.1162 68.504 0.152235 59.668 0.152235 44.064H15.5682C15.5682 51.584 18.6702 55.626 26.9422 55.626C33.8982 55.626 36.6242 52.712 36.6242 47.73C36.6242 41.526 32.4882 39.176 25.0622 39.176H21.7722V28.178H24.6862C30.4202 28.178 34.7442 25.734 34.7442 20.188C34.7442 15.864 32.0182 13.42 26.7542 13.42C21.6782 13.42 17.4482 15.77 17.4482 21.974H2.03223C2.03223 9.566 11.5262 0.541998 27.1302 0.541998C40.2902 0.541998 51.1002 6.93399 51.1002 18.402C51.1002 25.452 46.9642 29.87 41.7002 32.596V32.784C49.6902 35.322 52.9802 40.868 52.9802 48.388C52.9802 61.548 43.0162 68.504 27.5062 68.504Z" fill="white"/>
</svg>
