<svg width="25" height="24" viewBox="0 0 25 24" fill="none" xmlns="http://www.w3.org/2000/svg">
<path d="M7.08437 5.90984C7.66801 6.38398 7.88695 6.3478 8.98285 6.27469L19.3147 5.6543C19.5338 5.6543 19.3516 5.43569 19.2786 5.39936L17.5627 4.15891C17.2339 3.90366 16.7958 3.61134 15.9563 3.68446L5.95197 4.41415C5.58712 4.45033 5.51424 4.63274 5.65956 4.77898L7.08437 5.90984ZM7.70469 8.31764V19.1885C7.70469 19.7727 7.99665 19.9913 8.65377 19.9551L20.0085 19.2981C20.6659 19.262 20.7391 18.8601 20.7391 18.3855V7.58765C20.7391 7.11382 20.5569 6.85828 20.1544 6.89476L8.28862 7.58765C7.85074 7.62445 7.70469 7.84349 7.70469 8.31764ZM18.914 8.90078C18.9868 9.22945 18.914 9.55779 18.5848 9.59472L18.0376 9.70373V17.7293C17.5627 17.9846 17.1246 18.1305 16.7596 18.1305C16.1752 18.1305 16.0289 17.948 15.5912 17.4011L12.0126 11.7831V17.2187L13.145 17.4742C13.145 17.4742 13.145 18.1305 12.2314 18.1305L9.71269 18.2766C9.63952 18.1305 9.71269 17.766 9.96816 17.693L10.6254 17.5109V10.3241L9.71284 10.251C9.63967 9.92234 9.82193 9.44849 10.3334 9.41171L13.0354 9.22958L16.7596 14.9206V9.88615L15.8101 9.77716C15.7372 9.37538 16.0289 9.08365 16.394 9.04747L18.914 8.90078ZM5.11198 3.42922L15.5181 2.66291C16.796 2.5533 17.1248 2.62672 17.928 3.21017L21.2497 5.54485C21.7978 5.94632 21.9805 6.05563 21.9805 6.49328V19.2981C21.9805 20.1006 21.6882 20.5752 20.6661 20.6478L8.58148 21.3776C7.81423 21.4142 7.44907 21.3048 7.04727 20.7938L4.60107 17.62C4.16274 17.0358 3.98047 16.5987 3.98047 16.0874V4.70557C3.98047 4.0493 4.27289 3.50189 5.11198 3.42922Z" fill="black"/>
</svg>
