<svg width="100" height="24" viewBox="0 0 100 24" fill="none" xmlns="http://www.w3.org/2000/svg" >
<path d="M55.7989 0.289339C54.9166 0.372098 54.2023 0.578996 54.2023 0.744515C54.2023 0.910034 55.4208 2.27556 56.9334 3.72385C58.446 5.17214 59.6645 6.62042 59.6645 6.91008C59.6645 7.69629 50.4208 16.9653 49.6225 16.9653C48.8241 16.9653 38.6561 7.40664 38.6561 6.6618C38.6561 6.41352 39.7065 5.00661 40.967 3.51695C42.2275 2.06866 43.2779 0.744515 43.2779 0.620375C43.2779 0.496237 42.1434 0.413477 40.7569 0.413477C38.488 0.413477 38.0679 0.537616 36.6813 1.82039L35.0847 3.22729L33.446 1.82039C31.8914 0.496237 31.5972 0.413477 28.6981 0.413477C27.0174 0.413477 25.6309 0.537616 25.6309 0.744515C25.6309 0.910034 30.7989 6.12387 37.1015 12.3308C44.8746 19.9447 48.8241 23.586 49.4124 23.586C49.9586 23.586 51.051 22.7998 52.1015 21.5998C53.7402 19.8619 61.2191 12.2067 69.7067 3.64108C73.2363 0.0824402 73.152 -0.289976 69.1604 0.1652C67.3957 0.413477 66.5133 0.785895 65.1262 1.94452L63.404 3.43419L61.8494 1.9859C60.2107 0.454857 58.6561 -0.000318702 55.7989 0.289339Z" fill="#0B0B0B"/>
<path d="M67.7309 10.469C61.9325 16.1795 57.1426 21.1037 57.1426 21.3519C57.1426 22.1381 59.0753 23.5864 60.1258 23.5864C60.756 23.5864 61.6804 23.0899 62.3947 22.345C63.8652 20.8553 64.1597 20.8139 65.5457 22.1381C66.4281 22.9657 67.1003 23.1726 69.2439 23.214C70.6716 23.2554 71.9743 23.214 72.1002 23.0899C72.1845 22.9657 71.1346 21.7243 69.7059 20.276L67.1003 17.7105L72.5206 12.3725C75.5039 9.43455 78.1095 7.03454 78.277 7.03454C78.8233 7.03454 89.4953 17.4622 89.4953 17.9588C89.4953 18.207 88.5713 19.407 87.3944 20.607C86.2602 21.8071 85.2935 22.9657 85.2935 23.214C85.2935 23.4209 86.5547 23.5864 88.0666 23.5864C90.2102 23.5864 91.0926 23.3795 91.8907 22.7588C93.3194 21.683 94.2017 21.7243 95.3776 22.9657C96.6804 24.3312 97.1424 24.2898 98.697 22.5105L99.9998 21.0623L99.2016 19.9449C97.9832 18.2898 79.2437 0 78.739 0C78.5288 0 73.5716 4.71728 67.7309 10.469Z" fill="#0B0B0B"/>
<path d="M13.6975 6.08307C6.42859 13.5314 0 20.4004 0 20.6901C0 21.0211 0.546191 21.6418 1.76469 22.6763L2.85717 23.6694L4.57982 22.1383L6.30258 20.6073L8.19328 22.3039C9.87399 23.8349 10.2942 24.0005 12.1428 24.0005C13.2774 24.0005 14.3697 23.7935 14.5378 23.5452C14.6639 23.297 13.9916 22.2211 12.9411 21.1866C9.87399 17.9591 9.53779 17.5039 9.95796 16.8003C10.1681 16.4279 12.395 14.1107 14.916 11.5866L19.4959 6.99343L22.8151 10.2211C24.6219 12.0004 27.0589 14.5245 28.2353 15.8486L30.3781 18.2487L27.8151 20.8142C26.3865 22.2625 25.2101 23.5452 25.2101 23.7107C25.2101 23.8764 26.5127 24.0005 28.1513 24.0005C30.7983 24.0005 31.1345 23.9177 31.7648 22.9659C32.7312 21.5177 33.7815 21.3108 35.2521 22.3866C36.0505 22.9659 36.8067 23.2142 37.479 23.0487C38.6135 22.759 40.3362 21.3108 40.3362 20.6073C40.3362 19.9453 20.5043 0.414062 19.832 0.414062C19.4958 0.414062 16.7228 2.9796 13.6975 6.08307Z" fill="#0B0B0B"/>
<path d="M45.3779 3.31064L42.2266 6.16583L45.0837 8.97964C46.6383 10.5107 48.0669 12.0417 48.277 12.3314C48.5291 12.7451 49.4955 12.0003 51.8905 9.6831L55.1258 6.53825L52.0585 3.47615C50.3359 1.77959 48.8652 0.414062 48.7392 0.414062C48.6132 0.455442 47.1006 1.73821 45.3779 3.31064Z" fill="#0B0B0B"/>
<path d="M75.1682 13.944L72.1006 16.8407L75.2098 20.2337L78.3606 23.5854L81.5125 20.482L84.6633 17.3786L81.4698 14.2337L78.2347 11.0889L75.1682 13.944Z" fill="#0B0B0B"/>
<path d="M16.0496 14.3587L12.9824 17.1726L15.7976 20.276C17.3522 21.9726 18.8647 23.5037 19.1589 23.6692C19.495 23.8761 20.7135 22.883 22.6462 20.8139L25.6294 17.6691L22.9404 14.7311C21.4698 13.1173 19.9992 11.7518 19.7051 11.669C19.369 11.6277 17.7303 12.8277 16.0496 14.3587Z" fill="#0B0B0B"/>
</svg>
